<svg width="24" height="24" viewBox="0 0 24 24" fill="none" xmlns="http://www.w3.org/2000/svg">
<g clip-path="url(#clip0_2112_880)">
<path d="M19.3198 19.1183H4.67578L5.853 3.81406C5.87742 3.49798 6.141 3.25391 6.45788 3.25391H17.5377C17.8546 3.25391 18.1182 3.49798 18.1426 3.81406L19.3198 19.1183Z" fill="#E64C3C"/>
<path d="M20.356 24.0005H3.64427C3.31642 24.0005 3.05078 23.7348 3.05078 23.4074V19.7122C3.05078 19.3847 3.31642 19.1191 3.64427 19.1191H20.356C20.6835 19.1191 20.9491 19.3848 20.9491 19.7122V23.4074C20.9491 23.7348 20.6835 24.0005 20.356 24.0005Z" fill="#556080"/>
<path d="M19.3209 2.84653C19.2168 2.84653 19.1127 2.80669 19.0333 2.72733C18.8743 2.56828 18.8743 2.31118 19.0333 2.15213L20.2537 0.931785C20.4127 0.772738 20.6698 0.772738 20.8289 0.931785C20.9879 1.09083 20.9879 1.34794 20.8289 1.50699L19.6086 2.72733C19.5292 2.80664 19.4251 2.84653 19.3209 2.84653Z" fill="#BF372C"/>
<path d="M11.5924 2.03391C11.3675 2.03391 11.1856 1.85166 11.1856 1.62713V0.406781C11.1856 0.18225 11.3675 0 11.5924 0C11.8174 0 11.9992 0.18225 11.9992 0.406781V1.62713C11.9992 1.85166 11.8174 2.03391 11.5924 2.03391Z" fill="#BF372C"/>
<path d="M22.1701 9.76278H20.9498C20.7248 9.76278 20.543 9.58053 20.543 9.356C20.543 9.13147 20.7248 8.94922 20.9498 8.94922H22.1701C22.395 8.94922 22.5769 9.13147 22.5769 9.356C22.5769 9.58053 22.395 9.76278 22.1701 9.76278Z" fill="#BF372C"/>
<path d="M22.9826 16.2706H21.7623C21.5373 16.2706 21.3555 16.0883 21.3555 15.8638C21.3555 15.6393 21.5373 15.457 21.7623 15.457H22.9826C23.2075 15.457 23.3894 15.6393 23.3894 15.8638C23.3894 16.0883 23.2075 16.2706 22.9826 16.2706Z" fill="#BF372C"/>
<path d="M4.27179 3.25474C4.16763 3.25474 4.06352 3.21489 3.98421 3.13554L2.76382 1.91519C2.60477 1.75614 2.60477 1.49904 2.76382 1.33999C2.92286 1.18094 3.17997 1.18094 3.33902 1.33999L4.55936 2.56033C4.71841 2.71938 4.71841 2.97649 4.55936 3.13554C4.48005 3.21485 4.37589 3.25474 4.27179 3.25474Z" fill="#BF372C"/>
<path d="M3.05095 9.76278H1.83061C1.60566 9.76278 1.42383 9.58053 1.42383 9.356C1.42383 9.13147 1.60566 8.94922 1.83061 8.94922H3.05095C3.27591 8.94922 3.45773 9.13147 3.45773 9.356C3.45773 9.58053 3.27591 9.76278 3.05095 9.76278Z" fill="#BF372C"/>
<path d="M2.2365 16.2706H1.01616C0.791203 16.2706 0.609375 16.0883 0.609375 15.8638C0.609375 15.6393 0.791203 15.457 1.01616 15.457H2.2365C2.46145 15.457 2.64328 15.6393 2.64328 15.8638C2.64328 16.0883 2.46145 16.2706 2.2365 16.2706Z" fill="#BF372C"/>
<path d="M5.49219 24.0002H6.3057V22.373H5.49219V24.0002Z" fill="#3D4763"/>
<path d="M7.52734 24.0002H8.34091V22.373H7.52734V24.0002Z" fill="#3D4763"/>
<path d="M9.55859 24.0002H10.3722V22.373H9.55859V24.0002Z" fill="#3D4763"/>
<path d="M11.5939 24.0002H12.4074V22.373H11.5939V24.0002Z" fill="#3D4763"/>
<path d="M13.627 24.0002H14.4405V22.373H13.627V24.0002Z" fill="#3D4763"/>
<path d="M15.6621 24.0002H16.4757V22.373H15.6621V24.0002Z" fill="#3D4763"/>
<path d="M17.6953 24.0002H18.5088V22.373H17.6953V24.0002Z" fill="#3D4763"/>
<path d="M13.2186 14.6436H10.7779C10.5529 14.6436 10.3711 14.4614 10.3711 14.2369C10.3711 14.0123 10.5529 13.8301 10.7779 13.8301H13.2186C13.4435 13.8301 13.6253 14.0123 13.6253 14.2369C13.6253 14.4614 13.4435 14.6436 13.2186 14.6436Z" fill="#BF372C"/>
<path d="M15.2523 6.76191V12.7635C15.2523 12.9015 15.1364 13.0178 14.9985 13.0072C13.3201 12.8778 11.998 11.4744 11.998 9.7627C11.998 8.05055 13.3201 6.64758 14.9985 6.51825C15.1364 6.50766 15.2523 6.62358 15.2523 6.76191Z" fill="#BF372C"/>
<path d="M8.74414 6.76187V12.7635C8.74414 12.9014 8.86006 13.0178 8.99797 13.0072C10.6763 12.8778 11.9984 11.4744 11.9984 9.76271C11.9984 8.05055 10.6764 6.64759 8.99797 6.51826C8.86006 6.50762 8.74414 6.62354 8.74414 6.76187Z" fill="#BF372C"/>
<path d="M11.9986 16.2707C11.7736 16.2707 11.5918 16.0885 11.5918 15.864V9.76225C11.5918 9.53772 11.7736 9.35547 11.9986 9.35547C12.2235 9.35547 12.4054 9.53772 12.4054 9.76225V15.8639C12.4054 16.0885 12.2235 16.2707 11.9986 16.2707Z" fill="#BF372C"/>
<path d="M10.7793 19.1175H13.22V15.8633H10.7793V19.1175Z" fill="#ECF0F1"/>
<path d="M14.0332 17.8975H9.96537C9.74042 17.8975 9.55859 17.7153 9.55859 17.4908C9.55859 17.2662 9.74042 17.084 9.96537 17.084H14.0332C14.2581 17.084 14.44 17.2662 14.44 17.4908C14.44 17.7153 14.2581 17.8975 14.0332 17.8975Z" fill="#556080"/>
</g>
<defs>
<clipPath id="clip0_2112_880">
<rect width="24" height="24" fill="white"/>
</clipPath>
</defs>
</svg>
