<svg width="1588" height="800" viewBox="0 0 1588 800" fill="none" xmlns="http://www.w3.org/2000/svg">
<g clip-path="url(#clip0_2112_417)">
<rect width="1600" height="800" transform="translate(-12)" fill="white"/>
<g opacity="0.04">
<line x1="1503.27" y1="-424.096" x2="-138.916" y2="20.0758" stroke="#1E1E1F" stroke-width="1.16043"/>
<line x1="1520.89" y1="-358.922" x2="-121.288" y2="85.2496" stroke="#1E1E1F" stroke-width="1.16043"/>
<line x1="1538.52" y1="-293.748" x2="-103.66" y2="150.424" stroke="#1E1E1F" stroke-width="1.16043"/>
<line x1="1556.15" y1="-228.574" x2="-86.032" y2="215.598" stroke="#1E1E1F" stroke-width="1.16043"/>
<line x1="1573.78" y1="-163.4" x2="-68.4039" y2="280.772" stroke="#1E1E1F" stroke-width="1.16043"/>
<line x1="1591.41" y1="-98.2257" x2="-50.7759" y2="345.946" stroke="#1E1E1F" stroke-width="1.16043"/>
<line x1="1609.03" y1="-33.0516" x2="-33.1478" y2="411.12" stroke="#1E1E1F" stroke-width="1.16043"/>
<line x1="1626.66" y1="32.1224" x2="-15.5199" y2="476.294" stroke="#1E1E1F" stroke-width="1.16043"/>
<line x1="1644.29" y1="97.2964" x2="2.10815" y2="541.468" stroke="#1E1E1F" stroke-width="1.16043"/>
<line x1="1661.92" y1="162.47" x2="19.7361" y2="606.642" stroke="#1E1E1F" stroke-width="1.16043"/>
<line x1="1679.55" y1="227.644" x2="37.3643" y2="671.816" stroke="#1E1E1F" stroke-width="1.16043"/>
<line x1="1697.17" y1="292.818" x2="54.9923" y2="736.99" stroke="#1E1E1F" stroke-width="1.16043"/>
<line x1="1714.8" y1="357.993" x2="72.6204" y2="802.164" stroke="#1E1E1F" stroke-width="1.16043"/>
<line x1="1732.43" y1="423.167" x2="90.2484" y2="867.338" stroke="#1E1E1F" stroke-width="1.16043"/>
<line x1="1750.06" y1="488.341" x2="107.876" y2="932.512" stroke="#1E1E1F" stroke-width="1.16043"/>
<line x1="1767.69" y1="553.515" x2="125.505" y2="997.686" stroke="#1E1E1F" stroke-width="1.16043"/>
<line x1="1785.31" y1="618.689" x2="143.133" y2="1062.86" stroke="#1E1E1F" stroke-width="1.16043"/>
<line x1="1802.94" y1="683.863" x2="160.761" y2="1128.03" stroke="#1E1E1F" stroke-width="1.16043"/>
<line x1="1820.57" y1="749.037" x2="178.389" y2="1193.21" stroke="#1E1E1F" stroke-width="1.16043"/>
<line x1="1980.78" y1="851.871" x2="1536.61" y2="-790.311" stroke="#1E1E1F" stroke-width="1.16043"/>
<line x1="1915.61" y1="869.499" x2="1471.44" y2="-772.683" stroke="#1E1E1F" stroke-width="1.16043"/>
<line x1="1850.43" y1="887.127" x2="1406.26" y2="-755.055" stroke="#1E1E1F" stroke-width="1.16043"/>
<line x1="1785.26" y1="904.755" x2="1341.09" y2="-737.427" stroke="#1E1E1F" stroke-width="1.16043"/>
<line x1="1720.09" y1="922.383" x2="1275.92" y2="-719.799" stroke="#1E1E1F" stroke-width="1.16043"/>
<line x1="1654.91" y1="940.011" x2="1210.74" y2="-702.171" stroke="#1E1E1F" stroke-width="1.16043"/>
<line x1="1589.74" y1="957.639" x2="1145.57" y2="-684.543" stroke="#1E1E1F" stroke-width="1.16043"/>
<line x1="1524.56" y1="975.267" x2="1080.39" y2="-666.915" stroke="#1E1E1F" stroke-width="1.16043"/>
<line x1="1459.39" y1="992.895" x2="1015.22" y2="-649.287" stroke="#1E1E1F" stroke-width="1.16043"/>
<line x1="1394.22" y1="1010.52" x2="950.045" y2="-631.659" stroke="#1E1E1F" stroke-width="1.16043"/>
<line x1="1329.04" y1="1028.15" x2="884.871" y2="-614.031" stroke="#1E1E1F" stroke-width="1.16043"/>
<line x1="1263.87" y1="1045.78" x2="819.697" y2="-596.403" stroke="#1E1E1F" stroke-width="1.16043"/>
<line x1="1198.69" y1="1063.41" x2="754.523" y2="-578.775" stroke="#1E1E1F" stroke-width="1.16043"/>
<line x1="1133.52" y1="1081.04" x2="689.349" y2="-561.147" stroke="#1E1E1F" stroke-width="1.16043"/>
<line x1="1068.35" y1="1098.66" x2="624.175" y2="-543.519" stroke="#1E1E1F" stroke-width="1.16043"/>
<line x1="1003.17" y1="1116.29" x2="559.001" y2="-525.891" stroke="#1E1E1F" stroke-width="1.16043"/>
<line x1="937.999" y1="1133.92" x2="493.827" y2="-508.263" stroke="#1E1E1F" stroke-width="1.16043"/>
<line x1="872.825" y1="1151.55" x2="428.653" y2="-490.635" stroke="#1E1E1F" stroke-width="1.16043"/>
<line x1="807.651" y1="1169.18" x2="363.479" y2="-473.007" stroke="#1E1E1F" stroke-width="1.16043"/>
<line x1="742.476" y1="1186.8" x2="298.305" y2="-455.379" stroke="#1E1E1F" stroke-width="1.16043"/>
<line x1="677.302" y1="1204.43" x2="233.131" y2="-437.751" stroke="#1E1E1F" stroke-width="1.16043"/>
<line x1="612.128" y1="1222.06" x2="167.957" y2="-420.123" stroke="#1E1E1F" stroke-width="1.16043"/>
<line x1="546.954" y1="1239.69" x2="102.783" y2="-402.495" stroke="#1E1E1F" stroke-width="1.16043"/>
<line x1="481.78" y1="1257.32" x2="37.6085" y2="-384.867" stroke="#1E1E1F" stroke-width="1.16043"/>
<line x1="416.606" y1="1274.94" x2="-27.5656" y2="-367.239" stroke="#1E1E1F" stroke-width="1.16043"/>
<line x1="351.432" y1="1292.57" x2="-92.7397" y2="-349.611" stroke="#1E1E1F" stroke-width="1.16043"/>
<line x1="286.258" y1="1310.2" x2="-157.914" y2="-331.983" stroke="#1E1E1F" stroke-width="1.16043"/>
<line x1="221.083" y1="1327.83" x2="-223.088" y2="-314.354" stroke="#1E1E1F" stroke-width="1.16043"/>
<line x1="155.909" y1="1345.46" x2="-288.262" y2="-296.726" stroke="#1E1E1F" stroke-width="1.16043"/>
<line x1="90.7354" y1="1363.08" x2="-353.436" y2="-279.098" stroke="#1E1E1F" stroke-width="1.16043"/>
<line x1="25.5614" y1="1380.71" x2="-418.61" y2="-261.47" stroke="#1E1E1F" stroke-width="1.16043"/>
</g>
<g opacity="0.4" filter="url(#filter0_f_2112_417)">
<circle cx="1482" cy="253" r="228" fill="#DF3636"/>
</g>
<g opacity="0.3" filter="url(#filter1_f_2112_417)">
<ellipse cx="95.256" cy="422.992" rx="249.5" ry="132" transform="rotate(-27.3932 95.256 422.992)" fill="#DF3636"/>
</g>
<g filter="url(#filter2_f_2112_417)">
<rect x="-192" y="748" width="1961" height="207" fill="white"/>
</g>
</g>
<defs>
<filter id="filter0_f_2112_417" x="754" y="-475" width="1456" height="1456" filterUnits="userSpaceOnUse" color-interpolation-filters="sRGB">
<feFlood flood-opacity="0" result="BackgroundImageFix"/>
<feBlend mode="normal" in="SourceGraphic" in2="BackgroundImageFix" result="shape"/>
<feGaussianBlur stdDeviation="250" result="effect1_foregroundBlur_2112_417"/>
</filter>
<filter id="filter1_f_2112_417" x="-534.5" y="-141.06" width="1259.51" height="1128.1" filterUnits="userSpaceOnUse" color-interpolation-filters="sRGB">
<feFlood flood-opacity="0" result="BackgroundImageFix"/>
<feBlend mode="normal" in="SourceGraphic" in2="BackgroundImageFix" result="shape"/>
<feGaussianBlur stdDeviation="200" result="effect1_foregroundBlur_2112_417"/>
</filter>
<filter id="filter2_f_2112_417" x="-342" y="598" width="2261" height="507" filterUnits="userSpaceOnUse" color-interpolation-filters="sRGB">
<feFlood flood-opacity="0" result="BackgroundImageFix"/>
<feBlend mode="normal" in="SourceGraphic" in2="BackgroundImageFix" result="shape"/>
<feGaussianBlur stdDeviation="75" result="effect1_foregroundBlur_2112_417"/>
</filter>
<clipPath id="clip0_2112_417">
<rect width="1600" height="800" fill="white" transform="translate(-12)"/>
</clipPath>
</defs>
</svg>
