<svg width="20" height="20" viewBox="0 0 20 20" fill="none" xmlns="http://www.w3.org/2000/svg">
<path fill-rule="evenodd" clip-rule="evenodd" d="M17.3251 12.9266C17.1607 16.8527 13.927 19.9856 9.96045 19.9856C5.88868 19.9856 2.5879 16.5738 2.5879 12.6131C2.5879 12.0837 2.57841 11.0256 3.37221 9.24051C3.84727 8.1722 4.14523 7.50106 4.31339 6.88757C4.40578 6.5504 4.58546 6.01471 5.0977 6.88757C5.39974 7.40224 5.41143 8.14248 5.41143 8.14248C5.41143 8.14248 6.53519 7.28012 7.29378 5.63267C8.40586 3.21753 7.51856 1.77385 7.21535 0.769926C7.11041 0.422632 7.04452 -0.201525 7.76437 0.0640435C8.49786 0.33471 10.437 1.69212 11.4506 3.12287C12.8973 5.16483 13.4114 7.12287 13.4114 7.12287C13.4114 7.12287 13.8746 6.54797 14.0389 5.9464C14.2244 5.2671 14.2271 4.59432 14.8231 5.31902C15.3899 6.0082 16.2317 7.30334 16.7055 8.53463C17.5659 10.7706 17.3251 12.9266 17.3251 12.9266Z" fill="url(#paint0_linear_2112_497)"/>
<path fill-rule="evenodd" clip-rule="evenodd" d="M9.96132 19.9852C7.14571 19.9852 4.86328 17.7028 4.86328 14.8872C4.86328 13.1883 5.54791 12.1568 6.97277 10.7581C7.88508 9.86249 8.73897 8.76249 9.10187 8.01347C9.17332 7.86602 9.33591 7.09762 9.96281 7.99731C10.2917 8.46915 10.8072 9.30829 11.1378 10.0244C11.7077 11.2592 11.8437 12.4558 11.8437 12.4558C11.8437 12.4558 12.4022 12.1267 12.7848 11.2793C12.9082 11.0063 13.1576 9.97237 13.8549 11.0061C14.3665 11.7647 15.0693 13.1286 15.0594 14.8872C15.0594 17.7028 12.7768 19.9852 9.96132 19.9852Z" fill="#FC9502"/>
<path fill-rule="evenodd" clip-rule="evenodd" d="M10.0392 14.417C10.7647 14.417 10.7647 15.7604 11.6863 17.5542C12.2999 18.7487 11.382 19.9856 10.0392 19.9856C8.69639 19.9856 8 18.8971 8 17.5542C8 16.2115 9.31373 14.417 10.0392 14.417Z" fill="#FCE202"/>
<defs>
<linearGradient id="paint0_linear_2112_497" x1="9.9715" y1="20.0004" x2="9.9715" y2="0.0151022" gradientUnits="userSpaceOnUse">
<stop stop-color="#FF4C0D"/>
<stop offset="1" stop-color="#FC9502"/>
</linearGradient>
</defs>
</svg>
